<svg id="Layer_1" data-name="Layer 1" xmlns="http://www.w3.org/2000/svg" viewBox="0 0 294.779 205.349"><defs><style>.cls-1{fill:#fff;}.cls-2{font-size:28px;font-family:Roboto-Medium, Roboto;font-weight:500;}</style></defs><path d="M177.284,200.364a80.333,80.333,0,0,0-16.5,6c-7.8,3.9-11,6.2-18.1,13.3-13.9,14-20.2,29.2-20.3,49.1-.1,12.8,1.3,18.7,7,30.8,14,29.2,47.8,45.1,78.9,37.2,14.7-3.8,29-13.2,44-29.2l7.5-8,7.5,8c15,16,29.3,25.4,44,29.2,36.3,9.3,74.5-13.9,84.2-51,2.3-8.7,2.3-25.3,0-34a95.883,95.883,0,0,0-5.9-15c-7.7-15.8-24.3-29.6-42.2-35.2-8.1-2.5-22.4-3.4-31.1-1.9-15.9,2.8-33.4,12.5-48.4,26.8l-8.2,7.9-8.1-7.9C228.184,203.964,203.384,195.164,177.284,200.364Z" transform="translate(-112.404 -133.469)"/><path class="cls-1" d="M348.384,203.264c19.3,6.4,32.8,18.5,41.5,37,5.9,12.7,7.6,25.5,4.6,34.1-5.4,15.2-15,23.1-32.5,27-8.8,2-28.4,1.5-34.7-.8l-3.9-1.5,5.4-.7c24.7-3.2,35.2-32.1,18.2-50a34.28,34.28,0,0,0-17.9-9.2c-9-1.3-20,5-34.7,20.1l-8.1,8.3-8.1-10.1c-4.5-5.6-10.3-12.8-12.9-16l-4.8-5.8,5.9-6c14.7-15,32.2-25.2,49.5-28.9C323.684,199.164,339.684,200.364,348.384,203.264Z" transform="translate(-112.404 -133.469)"/><path class="cls-1" d="M184.684,227.864a58.838,58.838,0,0,1,21.5,13c3.6,3.3,6.5,6.4,6.4,6.7-.1.4,4.2,5.1,9.5,10.4,5.3,5.4,9.7,10.2,9.7,10.6,0,1.6-11.9,14-18.3,19-9.4,7.4-14.1,9.6-21,9.5-20-.3-33.2-22.4-24.3-40.7,7.8-16,28.2-20.9,40.9-9.8.9.8,2,1.2,2.3.9,1-1-8.1-6.3-13.1-7.7-11.1-3.1-25.7,4.6-31.6,16.8-3.2,6.7-3.2,17.8.1,24.6,5.9,12.2,20.3,19.7,31.7,16.7,6.3-1.7,15.9-8.7,25.8-18.7l9-9.1,9.5,10.4c5.2,5.7,11,12.2,12.9,14.4l3.4,3.9-9.4,9.6c-16.6,16.9-29.3,24.9-44.9,28-38.4,7.7-75.4-19.2-81-58.8-2.3-16.1,3.1-33.1,13.4-42,2.8-2.4,10.1-6.2,15.1-7.8C160.884,224.964,175.784,224.964,184.684,227.864Z" transform="translate(-112.404 -133.469)"/><path class="cls-1" d="M338.484,243.364c9.8,4.7,15.5,13.9,15.5,25.4,0,11.6-5.6,20.6-15.9,25.6-12.8,6.3-22.9,2.7-40-14.2-5.7-5.6-10.3-10.7-10.3-11.4,0-2.1,19.3-20.3,25.3-23.9C322.684,239.264,328.884,238.864,338.484,243.364Z" transform="translate(-112.404 -133.469)"/><text class="cls-2" transform="translate(0 55.323)">Where will you go next?</text><text x="-112.404" y="-133.469"/></svg>