<?xml version="1.0" encoding="UTF-8" standalone="no"?>
<svg
   width="293.56061"
   height="139.2803"
   viewBox="0 0 293.56061 139.2803"
   version="1.1"
   id="svg44"
   sodipodi:docname="writing.svg"
   inkscape:export-filename="writing.png"
   inkscape:export-xdpi="172.8"
   inkscape:export-ydpi="172.8"
   inkscape:version="1.4 (e7c3feb1, 2024-10-09)"
   xmlns:inkscape="http://www.inkscape.org/namespaces/inkscape"
   xmlns:sodipodi="http://sodipodi.sourceforge.net/DTD/sodipodi-0.dtd"
   xmlns="http://www.w3.org/2000/svg"
   xmlns:svg="http://www.w3.org/2000/svg">
  <defs
     id="defs44" />
  <sodipodi:namedview
     id="namedview44"
     pagecolor="#505050"
     bordercolor="#eeeeee"
     borderopacity="1"
     inkscape:showpageshadow="0"
     inkscape:pageopacity="0"
     inkscape:pagecheckerboard="0"
     inkscape:deskcolor="#505050"
     inkscape:zoom="3.0342119"
     inkscape:cx="163.9635"
     inkscape:cy="41.691221"
     inkscape:window-width="1792"
     inkscape:window-height="1186"
     inkscape:window-x="0"
     inkscape:window-y="25"
     inkscape:window-maximized="0"
     inkscape:current-layer="svg44"
     inkscape:clip-to-page="false" />
  <rect
     width="293.56061"
     height="139.2803"
     fill="#ffffff"
     id="rect1"
     x="0"
     y="0"
     style="stroke-width:0.476604" />
  <path
     d="m 44.502432,34.881516 -0.01,0.74 -0.01,1.23 v 1.63 l 0.03,1.8 0.04,1.93 0.03,1.95 v 1.85 l -0.02,1.64 -0.02,1.33 -0.02,0.9 -0.01,0.47"
     stroke="#ff6b6b"
     stroke-width="2"
     stroke-linecap="round"
     stroke-linejoin="round"
     fill="none"
     opacity="0.8"
     id="path1" />
  <path
     d="m 39.082432,34.541516 0.27,0.01 h 0.62 l 1,-0.01 1.33,-0.09 1.53,-0.17 1.6,-0.26 1.58,-0.31 1.48,-0.29 1.28,-0.22 1.03,-0.13 0.68,-0.06 0.36,-0.01"
     stroke="#4ecdc4"
     stroke-width="2"
     stroke-linecap="round"
     stroke-linejoin="round"
     fill="none"
     opacity="0.8"
     id="path2" />
  <path
     d="m 54.662432,31.901516 0.08,0.31 0.1,0.68 0.06,1.14 -0.01,1.57 -0.09,1.9 -0.16,2.09 -0.18,2.16 -0.18,2.06 -0.12,1.79 -0.04,1.4 0.02,0.93 0.04,0.47 0.04,0.05 0.05,-0.34 0.08,-0.71 0.19,-1.02 0.33,-1.22 0.52,-1.27 0.69,-1.15 0.82,-0.91 0.89,-0.59 0.86,-0.21 0.74,0.21 0.58,0.62 0.36,1 0.19,1.26 0.06,1.35 0.03,1.26 0.04,1.01 0.09,0.65 0.09,0.33 0.07,0.11"
     stroke="#45b7d1"
     stroke-width="2"
     stroke-linecap="round"
     stroke-linejoin="round"
     fill="none"
     opacity="0.8"
     id="path3" />
  <path
     d="m 63.682432,45.131516 0.28,0.02 0.56,-0.07 0.79,-0.27 0.91,-0.55 0.89,-0.78 0.75,-0.96 0.54,-1.04 0.31,-1.02 0.03,-0.91 -0.25,-0.68 -0.5,-0.34 -0.73,0.09 -0.88,0.56 -0.91,1.02 -0.83,1.38 -0.63,1.61 -0.33,1.68 0.03,1.6 0.43,1.41 0.91,1.04 1.34,0.54 1.64,0.02 1.46,-0.27 0.97,-0.33"
     stroke="#96ceb4"
     stroke-width="2"
     stroke-linecap="round"
     stroke-linejoin="round"
     fill="none"
     opacity="0.8"
     id="path4" />
  <path
     d="m 83.262432,31.761516 0.02,0.42 0.04,0.84 0.03,1.26 0.02,1.61 v 1.86 l -0.01,1.99 -0.01,2 0.02,1.81 0.05,1.46 0.11,0.99 0.13,0.45 0.19,-0.07 0.26,-0.55 0.37,-0.94 0.49,-1.18 0.6,-1.3 0.68,-1.26 0.72,-1.11 0.72,-0.88 0.71,-0.59 0.66,-0.22 0.58,0.18 0.46,0.6 0.31,1 0.17,1.31 0.09,1.49 0.05,1.51 0.08,1.29 0.15,0.91 0.21,0.44 0.19,0.09 0.14,-0.08"
     stroke="#feca57"
     stroke-width="2"
     stroke-linecap="round"
     stroke-linejoin="round"
     fill="none"
     opacity="0.8"
     id="path5" />
  <path
     d="m 94.112432,43.751516 0.28,-0.11 0.5,-0.27 0.71,-0.5 0.77,-0.73 0.73,-0.89 0.57,-0.95 0.35,-0.92 0.1,-0.81 -0.14,-0.64 -0.37,-0.42 -0.56,-0.16 -0.72,0.18 -0.82,0.55 -0.84,0.88 -0.74,1.15 -0.54,1.33 -0.28,1.37 0.04,1.33 0.34,1.19 0.67,0.95 0.96,0.62 1.14,0.26 1,0.01 0.66,-0.1"
     stroke="#ff9ff3"
     stroke-width="2"
     stroke-linecap="round"
     stroke-linejoin="round"
     fill="none"
     opacity="0.8"
     id="path6" />
  <path
     d="m 105.58243,38.611516 -0.09,-0.23 -0.2,-0.32 -0.37,-0.32 -0.54,-0.12 -0.71,0.18 -0.82,0.58 -0.86,0.97 -0.77,1.27 -0.59,1.42 -0.29,1.38 0.01,1.17 0.29,0.86 0.52,0.51 0.67,0.13 0.74,-0.24 0.75,-0.61 0.69,-0.95 0.61,-1.21 0.5,-1.36 0.39,-1.33 0.27,-1.12 0.18,-0.8 0.09,-0.42 0.02,-0.03 -0.03,0.36 -0.04,0.76 -0.05,1.12 -0.01,1.39 0.04,1.48 0.08,1.38 0.09,1.01 0.07,0.57"
     stroke="#54a0ff"
     stroke-width="2"
     stroke-linecap="round"
     stroke-linejoin="round"
     fill="none"
     opacity="0.8"
     id="path7" />
  <path
     d="m 109.49243,37.481516 0.05,0.18 0.06,0.45 0.07,0.78 0.05,1.1 0.05,1.3 0.04,1.36 0.05,1.26 0.07,1.03 0.08,0.75 0.09,0.47 0.08,0.22 0.04,-0.05 0.02,-0.35 v -0.71 l 0.01,-1.04 0.07,-1.27 0.14,-1.36 0.24,-1.32 0.33,-1.17 0.45,-0.97 0.54,-0.72 0.59,-0.49 0.51,-0.27 0.32,-0.12"
     stroke="#5f27cd"
     stroke-width="2"
     stroke-linecap="round"
     stroke-linejoin="round"
     fill="none"
     opacity="0.8"
     id="path8" />
  <path
     d="m 117.47243,29.901516 0.02,0.26 0.04,0.57 0.09,0.92 0.12,1.26 0.11,1.55 0.08,1.78 0.05,1.91 0.05,1.98 0.05,1.89 0.03,1.68 0.02,1.2 0.01,0.67"
     stroke="#00d2d3"
     stroke-width="2"
     stroke-linecap="round"
     stroke-linejoin="round"
     fill="none"
     opacity="0.8"
     id="path9" />
  <path
     d="m 114.88243,40.061516 0.11,-0.01 0.31,-0.01 0.56,-0.01 0.86,-0.03 1.13,-0.08 1.26,-0.15 1.07,-0.18 0.68,-0.13"
     stroke="#ff9f43"
     stroke-width="2"
     stroke-linecap="round"
     stroke-linejoin="round"
     fill="none"
     opacity="0.8"
     id="path10" />
  <path
     d="m 133.94243,29.471516 0.08,0.21 0.09,0.5 0.07,0.85 v 1.19 l -0.1,1.49 -0.14,1.7 -0.15,1.83 -0.12,1.82 -0.05,1.71 0.02,1.45 0.07,1.13 0.1,0.78 0.1,0.45 0.12,0.12 0.14,-0.19 0.19,-0.51 0.28,-0.83 0.37,-1.06 0.48,-1.18 0.56,-1.18 0.61,-1.06 0.61,-0.87 0.59,-0.59 0.56,-0.25 0.51,0.11 0.41,0.48 0.28,0.86 0.13,1.16 0.01,1.4 -0.02,1.51 -0.01,1.48 0.07,1.32 0.17,1 0.26,0.61 0.25,0.27 0.19,0.05"
     stroke="#ff6b6b"
     stroke-width="2"
     stroke-linecap="round"
     stroke-linejoin="round"
     fill="none"
     opacity="0.8"
     id="path11" />
  <path
     d="m 146.27243,39.201516 -0.13,-0.31 -0.26,-0.42 -0.42,-0.4 -0.56,-0.18 -0.69,0.12 -0.78,0.47 -0.78,0.77 -0.67,1.03 -0.47,1.19 -0.21,1.21 0.03,1.13 0.26,0.93 0.46,0.68 0.61,0.38 0.72,0.05 0.77,-0.28 0.73,-0.61 0.65,-0.9 0.52,-1.12 0.37,-1.23 0.22,-1.21 0.11,-1.04 0.01,-0.79 -0.03,-0.52 -0.07,-0.23 -0.07,0.09 -0.07,0.45 -0.06,0.85 -0.01,1.18 0.02,1.36 0.07,1.38 0.11,1.27 0.15,1.05 0.2,0.77 0.19,0.47 0.13,0.21"
     stroke="#4ecdc4"
     stroke-width="2"
     stroke-linecap="round"
     stroke-linejoin="round"
     fill="none"
     opacity="0.8"
     id="path12" />
  <path
     d="m 153.26243,37.671516 -0.22,-0.14 -0.4,-0.17 -0.58,-0.13 -0.66,0.03 -0.67,0.22 -0.59,0.4 -0.44,0.54 -0.21,0.62 0.09,0.65 0.42,0.66 0.75,0.65 0.99,0.64 1.11,0.66 1.07,0.65 0.89,0.62 0.63,0.58 0.32,0.51 v 0.44 l -0.33,0.39 -0.62,0.33 -0.86,0.24 -1.02,0.16 -1.07,0.07 -1.06,-0.03 -0.92,-0.09 -0.73,-0.13 -0.46,-0.13 -0.22,-0.09"
     stroke="#45b7d1"
     stroke-width="2"
     stroke-linecap="round"
     stroke-linejoin="round"
     fill="none"
     opacity="0.8"
     id="path13" />
  <path
     d="m 169.21243,36.601516 0.01,0.08 v 0.22 l 0.02,0.45 0.02,0.72 0.04,0.94 0.04,1.13 0.04,1.24 0.03,1.26 0.02,1.16 0.04,0.97 0.04,0.64 0.04,0.33"
     stroke="#96ceb4"
     stroke-width="2"
     stroke-linecap="round"
     stroke-linejoin="round"
     fill="none"
     opacity="0.8"
     id="path14" />
  <path
     d="m 169.39243,30.661516 -0.03,-0.12 -0.01,-0.13 0.02,-0.09 h 0.05"
     stroke="#feca57"
     stroke-width="2"
     stroke-linecap="round"
     stroke-linejoin="round"
     fill="none"
     opacity="0.8"
     id="path15" />
  <path
     d="m 173.89243,28.901516 0.03,0.14 0.04,0.34 v 0.63 l -0.04,0.95 -0.08,1.25 -0.1,1.54 -0.12,1.77 -0.13,1.94 -0.11,1.99 -0.06,1.94 0.04,1.78 0.14,1.48 0.25,1.07 0.29,0.6 0.26,0.22 h 0.17"
     stroke="#ff9ff3"
     stroke-width="2"
     stroke-linecap="round"
     stroke-linejoin="round"
     fill="none"
     opacity="0.8"
     id="path16" />
  <path
     d="m 170.62243,38.401516 0.23,-0.06 0.53,-0.11 0.85,-0.15 1.15,-0.15 1.31,-0.14 1.33,-0.08 1.05,-0.04 h 0.64"
     stroke="#54a0ff"
     stroke-width="2"
     stroke-linecap="round"
     stroke-linejoin="round"
     fill="none"
     opacity="0.8"
     id="path17" />
  <path
     d="m 182.93243,37.731516 -0.18,-0.14 -0.35,-0.2 -0.54,-0.19 -0.66,-0.08 -0.71,0.08 -0.69,0.28 -0.58,0.43 -0.41,0.54 -0.19,0.6 0.06,0.61 0.34,0.62 0.57,0.59 0.76,0.59 0.86,0.59 0.86,0.59 0.76,0.61 0.58,0.62 0.31,0.64 0.01,0.63 -0.32,0.61 -0.66,0.55 -0.95,0.47 -1.17,0.32 -1.29,0.12 -1.29,-0.08 -1.16,-0.25 -0.84,-0.28 -0.47,-0.21"
     stroke="#5f27cd"
     stroke-width="2"
     stroke-linecap="round"
     stroke-linejoin="round"
     fill="none"
     opacity="0.8"
     id="path18" />
  <path
     d="m 192.98243,38.171516 0.05,0.17 0.1,0.4 0.11,0.7 0.1,0.99 0.06,1.19 0.01,1.28 -0.03,1.23 -0.05,1.05 -0.05,0.8 -0.04,0.52 -0.01,0.23 0.02,-0.05 0.03,-0.34 0.04,-0.66 0.05,-0.95 0.08,-1.18 0.16,-1.3 0.24,-1.31 0.31,-1.26 0.37,-1.13 0.41,-0.92 0.44,-0.64 0.46,-0.29 0.52,0.07 0.58,0.38 0.62,0.6 0.52,0.57 0.34,0.39"
     stroke="#00d2d3"
     stroke-width="2"
     stroke-linecap="round"
     stroke-linejoin="round"
     fill="none"
     opacity="0.8"
     id="path19" />
  <path
     d="m 200.10243,42.271516 0.35,-0.01 0.63,-0.08 0.85,-0.17 0.96,-0.29 0.98,-0.42 0.94,-0.53 0.84,-0.6 0.66,-0.66 0.41,-0.65 0.12,-0.6 -0.2,-0.49 -0.52,-0.31 -0.81,-0.05 -1.03,0.26 -1.16,0.57 -1.14,0.85 -1,1.03 -0.72,1.13 -0.34,1.17 0.09,1.11 0.51,0.99 0.87,0.78 1.11,0.53 1.32,0.22 1.43,-0.11 1.45,-0.38 1.16,-0.46 0.73,-0.36"
     stroke="#ff9f43"
     stroke-width="2"
     stroke-linecap="round"
     stroke-linejoin="round"
     fill="none"
     opacity="0.8"
     id="path20" />
  <path
     d="m 213.66243,37.661516 -0.18,-0.16 -0.33,-0.19 -0.51,-0.12 -0.65,0.09 -0.77,0.33 -0.83,0.62 -0.8,0.88 -0.68,1.09 -0.5,1.22 -0.25,1.24 0.04,1.15 0.31,0.97 0.53,0.72 0.7,0.39 0.8,0.05 0.85,-0.32 0.85,-0.67 0.83,-0.98 0.74,-1.21 0.59,-1.34 0.4,-1.3 0.19,-1.14 0.03,-0.85 -0.05,-0.52 -0.07,-0.16 -0.05,0.18 -0.01,0.53 v 0.86 1.12 1.3 l 0.03,1.35 0.08,1.28 0.17,1.09 0.24,0.8 0.24,0.47 0.18,0.2"
     stroke="#ff6b6b"
     stroke-width="2"
     stroke-linecap="round"
     stroke-linejoin="round"
     fill="none"
     opacity="0.8"
     id="path21" />
  <path
     d="m 222.30243,37.181516 -0.18,-0.19 -0.35,-0.27 -0.53,-0.25 -0.65,-0.12 -0.75,0.08 -0.75,0.29 -0.7,0.49 -0.54,0.64 -0.29,0.74 v 0.79 l 0.3,0.78 0.58,0.75 0.8,0.72 0.95,0.7 1.02,0.66 0.98,0.65 0.83,0.64 0.57,0.61 0.26,0.6 -0.08,0.56 -0.42,0.5 -0.75,0.38 -1,0.22 -1.12,0.01 -1.09,-0.18 -0.91,-0.34 -0.6,-0.35 -0.31,-0.25"
     stroke="#4ecdc4"
     stroke-width="2"
     stroke-linecap="round"
     stroke-linejoin="round"
     fill="none"
     opacity="0.8"
     id="path22" />
  <path
     d="m 228.36243,39.951516 -0.08,-0.18 -0.17,-0.25 -0.28,-0.23 -0.36,-0.08 -0.45,0.14 -0.5,0.41 -0.5,0.67 -0.43,0.88 -0.28,1.02 -0.06,1.03 0.18,0.95 0.42,0.79 0.59,0.59 0.7,0.34 0.75,0.1 0.74,-0.16 0.67,-0.38 0.53,-0.6 0.36,-0.77 0.13,-0.9 -0.11,-0.98 -0.34,-0.98 -0.51,-0.9 -0.61,-0.74 -0.61,-0.54 -0.56,-0.34 -0.42,-0.17 -0.25,-0.05"
     stroke="#45b7d1"
     stroke-width="2"
     stroke-linecap="round"
     stroke-linejoin="round"
     fill="none"
     opacity="0.8"
     id="path23" />
  <path
     d="m 232.33243,37.181516 0.15,0.19 0.23,0.4 0.26,0.64 0.19,0.86 0.08,1.05 -0.02,1.19 -0.07,1.28 -0.05,1.29 -0.02,1.19 0.02,0.98 0.04,0.72 0.02,0.44 v 0.16 l -0.03,-0.14 -0.02,-0.46 0.02,-0.77 0.1,-1.05 0.21,-1.22 0.32,-1.3 0.42,-1.26 0.5,-1.14 0.55,-0.96 0.58,-0.74 0.6,-0.47 0.61,-0.17 0.58,0.17 0.52,0.53 0.41,0.86 0.27,1.14 0.13,1.29 0.04,1.35 -0.01,1.29 0.01,1.1 0.03,0.84 0.06,0.51 0.04,0.24"
     stroke="#96ceb4"
     stroke-width="2"
     stroke-linecap="round"
     stroke-linejoin="round"
     fill="none"
     opacity="0.8"
     id="path24" />
  <path
     d="m 246.64243,37.301516 -0.11,-0.16 -0.26,-0.24 -0.48,-0.23 -0.67,-0.08 -0.8,0.1 -0.85,0.29 -0.8,0.44 -0.67,0.52 -0.46,0.55 -0.18,0.57 0.14,0.59 0.48,0.65 0.77,0.74 0.96,0.82 1.02,0.89 0.92,0.9 0.69,0.95 0.4,0.78 0.16,0.53"
     stroke="#feca57"
     stroke-width="2"
     stroke-linecap="round"
     stroke-linejoin="round"
     fill="none"
     opacity="0.8"
     id="path25" />
  <path
     d="m 17.222432,102.71152 0.16,0.45 0.22,0.81 0.26,1.09 0.26,1.19 0.32,1.15 0.41,0.95 0.53,0.56 0.66,0.09 0.79,-0.41 0.89,-0.82 0.94,-1.09 0.88,-1.13 0.73,-1 0.52,-0.7 0.31,-0.34 0.16,0.05 0.1,0.42 0.12,0.75 0.21,0.99 0.37,1.06 0.55,0.96 0.72,0.71 0.85,0.33 0.92,-0.12 0.91,-0.54 0.81,-0.93 0.64,-1.2 0.4,-1.33 0.13,-1.3 -0.13,-1.12 -0.3,-0.87 -0.38,-0.62 -0.33,-0.42 -0.22,-0.25 -0.09,-0.130004"
     stroke="#ff6b6b"
     stroke-width="2"
     stroke-linecap="round"
     stroke-linejoin="round"
     fill="none"
     opacity="0.8"
     id="path26" />
  <path
     d="m 35.232432,88.901516 0.02,0.03 0.08,0.16 0.14,0.44 0.2,0.83 0.2,1.31 0.16,1.77 0.1,2.16 0.07,2.41 0.06,2.490004 0.11,2.36 0.18,2.07 0.23,1.6 0.28,1.03 0.3,0.43 0.32,-0.16 0.35,-0.7 0.41,-1.09 0.48,-1.32 0.53,-1.35 0.58,-1.21 0.6,-0.99 0.58,-0.68 0.57,-0.28 0.52,0.17 0.44,0.64 0.35,1.05 0.24,1.3 0.14,1.34 0.12,1.21 0.12,0.92 0.19,0.52 0.25,0.05 0.34,-0.41 0.42,-0.83 0.5,-1.13 0.51,-1.25 0.48,-1.16 0.37,-0.9 0.26,-0.52 0.17,-0.09 0.12,0.34 0.11,0.72 0.12,1.02 0.16,1.17 0.19,1.16 0.2,1 0.21,0.74 0.16,0.4 0.07,0.01 -0.03,-0.33 -0.07,-0.45 -0.08,-0.39"
     stroke="#4ecdc4"
     stroke-width="2"
     stroke-linecap="round"
     stroke-linejoin="round"
     fill="none"
     opacity="0.8"
     id="path27" />
  <path
     d="m 46.222432,95.541516 -0.12,-0.16 -0.07,-0.13 -0.03,-0.07 0.06,0.04"
     stroke="#45b7d1"
     stroke-width="2"
     stroke-linecap="round"
     stroke-linejoin="round"
     fill="none"
     opacity="0.8"
     id="path28" />
  <path
     d="m 54.302432,100.38152 -0.13,-0.1 -0.21,-0.1 -0.31,-0.02 -0.36,0.16 -0.43,0.38 -0.48,0.62 -0.45,0.85 -0.35,1.03 -0.16,1.11 0.08,1.07 0.36,0.9 0.61,0.64 0.84,0.3 1,-0.1 1.1,-0.5 1.08,-0.89 0.98,-1.24 0.81,-1.54 0.6,-1.79 0.36,-1.950004 0.15,-1.96 -0.04,-1.82 -0.22,-1.51 -0.36,-1.13 -0.42,-0.68 -0.42,-0.21 -0.33,0.31 -0.19,0.86 -0.05,1.36 0.09,1.75 0.19,1.99 0.27,2.040004 0.33,1.93 0.36,1.66 0.37,1.28 0.39,0.85 0.4,0.37 0.44,-0.1 0.48,-0.54 0.55,-0.91 0.6,-1.13 0.61,-1.14 0.57,-0.96 0.48,-0.63 0.37,-0.23 0.25,0.19 0.17,0.57 0.14,0.87 0.16,1.04 0.24,1.07 0.38,0.95 0.55,0.73 0.72,0.42 0.84,0.12 0.73,-0.07 0.48,-0.13"
     stroke="#96ceb4"
     stroke-width="2"
     stroke-linecap="round"
     stroke-linejoin="round"
     fill="none"
     opacity="0.8"
     id="path29" />
  <path
     d="m 79.402432,97.881516 0.01,-0.02 0.01,0.05 v 0.19 l -0.02,0.46 -0.04,0.76 -0.08,1.030004 -0.07,1.24 -0.05,1.34 0.01,1.33 0.07,1.18 0.13,0.95 0.14,0.62 0.13,0.25 0.08,-0.16 0.05,-0.55 0.02,-0.91 0.02,-1.18 0.02,-1.3 0.03,-1.3 0.03,-1.16 0.04,-0.960004 0.07,-0.7 0.14,-0.43 0.22,-0.13 0.35,0.15 0.48,0.4 0.63,0.58 0.79,0.670004 0.96,0.61 1.11,0.45 1.19,0.19 1.18,-0.09 1.07,-0.37 0.87,-0.61 0.62,-0.790004 0.32,-0.86 v -0.85 l -0.28,-0.69 -0.51,-0.44 -0.68,-0.13 -0.75,0.21 -0.76,0.57 -0.67,0.89 -0.51,1.16 -0.27,1.350004 0.01,1.44 0.29,1.4 0.6,1.21 0.86,0.93 1.06,0.57 0.94,0.27 0.63,0.06"
     stroke="#feca57"
     stroke-width="2"
     stroke-linecap="round"
     stroke-linejoin="round"
     fill="none"
     opacity="0.8"
     id="path30" />
  <path
     d="m 96.202432,100.40152 -0.14,-0.33 -0.28,-0.470004 -0.43,-0.47 -0.56,-0.28 -0.64,0.02 -0.68,0.34 -0.66,0.66 -0.56,0.930004 -0.4,1.13 -0.17,1.22 0.06,1.19 0.31,0.99 0.5,0.67 0.65,0.27 0.74,-0.15 0.73,-0.56 0.66,-0.92 0.53,-1.18 0.37,-1.28 0.23,-1.17 0.1,-0.93 0.01,-0.620004 -0.05,-0.29 -0.08,0.04 -0.06,0.36 -0.03,0.710004 0.06,1 0.15,1.18 0.28,1.23 0.35,1.13 0.43,0.9 0.47,0.56 0.54,0.14 0.66,-0.35 0.779998,-0.84 0.87,-1.25 0.9,-1.5 0.83,-1.56 0.73,-1.460004 0.58,-1.2 0.43,-0.88 0.31,-0.56 0.21,-0.21 0.17,0.11 0.2,0.44 0.26,0.75 0.34,0.98 0.39,1.130004 0.38,1.19 0.31,1.17 0.18,1.11 -0.02,1 -0.24,0.81 -0.43,0.6 -0.58,0.35 -0.63,0.09 -0.59,-0.17 -0.46,-0.39 -0.28,-0.42 -0.12,-0.33"
     stroke="#ff9ff3"
     stroke-width="2"
     stroke-linecap="round"
     stroke-linejoin="round"
     fill="none"
     opacity="0.8"
     id="path31" />
  <path
     d="m 113.40243,99.271516 -0.12,-0.13 -0.23,-0.21 -0.38,-0.21 -0.51,-0.13 -0.65,0.05 -0.74,0.3 -0.75,0.56 -0.65,0.800004 -0.46,1 -0.2,1.09 0.11,1.09 0.4,0.98 0.68,0.76 0.88,0.45 1.01,0.12 1.02,-0.21 0.94,-0.53 0.75,-0.79 0.51,-0.96 0.22,-1.06 -0.09,-1.01 -0.35,-0.88 -0.55,-0.700004 -0.61,-0.5 -0.55,-0.32 -0.41,-0.2 -0.22,-0.08 h 0.04 l 0.32,0.06 0.64,0.08 0.92,0.07 1.13,0.03 1.21,0.02 1.14,0.11 0.97,0.27 0.7,0.5 0.41,0.750004 0.12,0.97 -0.08,1.1 -0.18,1.12 -0.16,0.99 -0.07,0.72 0.07,0.36 0.22,-0.06 0.36,-0.47 0.5,-0.83 0.62,-1.08 0.69,-1.19 0.71,-1.12 0.67,-0.92 0.61,-0.640004 0.52,-0.29 0.45,0.07 0.37,0.44 0.32,0.780004 0.3,1.05 0.36,1.19 0.43,1.16 0.42,0.89 0.29,0.51"
     stroke="#54a0ff"
     stroke-width="2"
     stroke-linecap="round"
     stroke-linejoin="round"
     fill="none"
     opacity="0.8"
     id="path32" />
  <path
     d="m 139.68243,94.291516 0.09,0.22 0.13,0.47 0.16,0.76 0.14,1.01 0.13,1.21 0.12,1.37 0.12,1.470004 0.13,1.52 0.16,1.49 0.19,1.33 0.17,0.95 0.13,0.53"
     stroke="#5f27cd"
     stroke-width="2"
     stroke-linecap="round"
     stroke-linejoin="round"
     fill="none"
     opacity="0.8"
     id="path33" />
  <path
     d="m 144.83243,97.681516 -0.3,-0.08 -0.48,-0.04 -0.61,0.07 -0.64,0.29 -0.67,0.53 -0.66,0.74 -0.61,0.890004 -0.47,0.98 -0.27,1 v 0.98 l 0.29,0.89 0.58,0.74 0.84,0.54 1.07,0.31 1.21,0.06 1.24,-0.2 1.15,-0.42 0.98,-0.63 0.73,-0.81 0.49,-0.95 0.28,-1.01 0.09,-1 -0.02,-0.880004 -0.09,-0.69 -0.12,-0.44 -0.07,-0.13 v 0.18 l 0.06,0.51 0.12,0.83 0.16,1.070004 0.17,1.2 0.18,1.2 0.18,1.08 0.17,0.89 0.17,0.63 0.14,0.31 0.12,-0.06 0.09,-0.45 0.07,-0.82 0.09,-1.07 0.11,-1.2 0.16,-1.2 0.22,-1.11 0.26,-0.940004 0.31,-0.72 0.35,-0.46 0.37,-0.17 0.41,0.14 0.42,0.44 0.39,0.71 0.33,0.920004 0.26,1.11 0.2,1.18 0.23,1.2 0.22,0.96 0.17,0.59"
     stroke="#00d2d3"
     stroke-width="2"
     stroke-linecap="round"
     stroke-linejoin="round"
     fill="none"
     opacity="0.8"
     id="path34" />
  <path
     d="m 159.81243,98.691516 -0.15,-0.25 -0.25,-0.31 -0.34,-0.26 -0.42,-0.05 -0.5,0.22 -0.57,0.52 -0.6,0.8 -0.54,1.070004 -0.38,1.25 -0.14,1.29 0.16,1.22 0.46,1.01 0.72,0.68 0.88,0.29 0.95,-0.1 0.89,-0.49 0.74,-0.82 0.51,-1.08 0.21,-1.23 -0.1,-1.26 -0.36,-1.15 -0.52,-0.940004 -0.47,-0.62 -0.31,-0.32"
     stroke="#ff9f43"
     stroke-width="2"
     stroke-linecap="round"
     stroke-linejoin="round"
     fill="none"
     opacity="0.8"
     id="path35" />
  <path
     d="m 163.14243,96.671516 -0.03,0.09 -0.06,0.28 -0.12,0.54 -0.14,0.82 -0.11,1.07 -0.01,1.240004 0.16,1.29 0.32,1.23 0.48,1.03 0.59,0.73 0.66,0.37 0.7,-0.07 0.71,-0.51 0.69,-0.9 0.6,-1.19 0.44,-1.32 0.26,-1.28 0.06,-1.110004 -0.07,-0.85 -0.15,-0.51 -0.19,-0.14 -0.2,0.26 -0.18,0.65 -0.11,1.01 v 1.250004 l 0.16,1.36 0.33,1.31 0.52,1.13 0.66,0.84 0.77,0.5 0.81,0.12 0.78,-0.25 0.68,-0.6 0.51,-0.91 0.29,-1.11 0.04,-1.21 -0.18,-1.18 -0.36,-1.020004 -0.46,-0.81 -0.48,-0.53 -0.41,-0.22 -0.3,0.12 -0.14,0.42 0.07,0.64 0.32,0.7 0.63,0.570004 0.93,0.34 1.16,0.01 1.29,-0.29 1.26,-0.54 1.1,-0.730004 0.84,-0.81 0.53,-0.78 0.24,-0.64 -0.01,-0.42 -0.14,-0.13 -0.18,0.18 -0.16,0.47 -0.04,0.76 0.14,0.97 0.38,1.150004 0.65,1.24 0.86,1.28 0.94,1.24 0.85,1.14 0.56,0.98 0.15,0.78 -0.33,0.55 -0.75,0.29 -1.06,0.05 -1.19,-0.14 -1.13,-0.31 -0.9,-0.42 -0.6,-0.49 -0.32,-0.42 -0.11,-0.28"
     stroke="#ff6b6b"
     stroke-width="2"
     stroke-linecap="round"
     stroke-linejoin="round"
     fill="none"
     opacity="0.8"
     id="path36" />
  <path
     d="m 194.27243,95.351516 0.01,-0.02 0.04,0.07 0.06,0.26 0.06,0.51 0.07,0.8 0.08,1.06 0.09,1.26 0.11,1.410004 0.13,1.47 0.13,1.44 0.14,1.29 0.15,1.05 0.13,0.72 0.12,0.35 0.07,-0.06 0.03,-0.49 0.03,-0.89 0.05,-1.24 0.12,-1.46 0.23,-1.57 0.35,-1.540004 0.45,-1.39 0.49,-1.17 0.47,-0.86 0.42,-0.47 0.34,-0.04 0.24,0.42 0.17,0.84 0.1,1.2 0.06,1.44 0.08,1.540004 0.16,1.52 0.28,1.34 0.38,1.05 0.36,0.68 0.24,0.33"
     stroke="#4ecdc4"
     stroke-width="2"
     stroke-linecap="round"
     stroke-linejoin="round"
     fill="none"
     opacity="0.8"
     id="path37" />
  <path
     d="m 206.29243,98.591516 -0.25,-0.22 -0.45,-0.27 -0.64,-0.18 -0.72,0.06 -0.74,0.34 -0.66,0.63 -0.5,0.87 -0.26,1.030004 -0.01,1.1 0.24,1.05 0.44,0.89 0.62,0.65 0.75,0.35 0.79,0.01 0.76,-0.33 0.64,-0.66 0.44,-0.93 0.2,-1.08 -0.05,-1.12 -0.28,-1.080004 -0.43,-0.93 -0.47,-0.74 -0.4,-0.51 -0.24,-0.27 -0.04,-0.05 0.15,0.14 0.36,0.26 0.58,0.3 0.8,0.24 1.02,0.08 1.16,-0.16 1.23,-0.43 1.17,-0.66 1.04,-0.86 0.83,-1.01 0.6,-1.12 0.38,-1.15 0.18,-1.12 0.04,-1 -0.04,-0.79 -0.09,-0.53 -0.08,-0.23 -0.07,0.09 -0.04,0.46 -0.04,0.81 -0.02,1.14 -0.01,1.41 v 1.62 1.75 l -0.01,1.83 -0.02,1.830004 -0.03,1.75 -0.02,1.57 -0.02,1.31 -0.02,1 -0.03,0.62 -0.05,0.23 -0.11,-0.12 -0.12,-0.28 -0.1,-0.27"
     stroke="#45b7d1"
     stroke-width="2"
     stroke-linecap="round"
     stroke-linejoin="round"
     fill="none"
     opacity="0.8"
     id="path38" />
  <path
     d="m 210.01243,99.911516 0.03,-0.03 h 0.15 l 0.36,0.04 0.63,0.100004 0.87,0.11 1.02,0.05 1.06,-0.05 1.05,-0.250004 0.95,-0.49 0.81,-0.72 0.58,-0.7 0.31,-0.5"
     stroke="#96ceb4"
     stroke-width="2"
     stroke-linecap="round"
     stroke-linejoin="round"
     fill="none"
     opacity="0.8"
     id="path39" />
  <path
     d="m 218.15243,89.651516 -0.08,-0.06 -0.08,0.07 -0.05,0.33 0.01,0.69 0.02,1.05 0.01,1.34 -0.02,1.54 -0.01,1.67 0.03,1.72 0.08,1.71 0.14,1.640004 0.17,1.48 0.22,1.26 0.26,0.97 0.33,0.65 0.4,0.3 0.44,-0.03 0.46,-0.36 0.46,-0.65 0.47,-0.87 0.46,-1 0.46,-1.03 0.41,-0.98 0.36,-0.88 0.27,-0.710004 0.19,-0.51 0.13,-0.22 0.07,0.09 0.02,0.44 v 0.750004 0.99 l 0.07,1.12 0.18,1.12 0.32,1 0.47,0.8 0.6,0.52 0.69,0.22 0.77,-0.11 0.8,-0.43 0.78,-0.73 0.69,-0.97 0.56,-1.08 0.4,-1.07 0.25,-0.92 0.13,-0.680004 0.04,-0.42 -0.02,-0.14 -0.03,0.16 -0.01,0.47 0.02,0.760004 0.08,0.98 0.15,1.1 0.19,1.08 0.24,0.95 0.28,0.76 0.28,0.48 0.28,0.14 0.24,-0.2 0.16,-0.33 0.08,-0.31"
     stroke="#feca57"
     stroke-width="2"
     stroke-linecap="round"
     stroke-linejoin="round"
     fill="none"
     opacity="0.8"
     id="path40" />
  <path
     d="m 230.23243,92.511516 0.03,0.01 0.04,0.05 0.05,0.07 0.04,0.07"
     stroke="#ff9ff3"
     stroke-width="2"
     stroke-linecap="round"
     stroke-linejoin="round"
     fill="none"
     opacity="0.8"
     id="path41" />
  <path
     d="m 233.00243,99.221516 0.09,0.11 0.12,0.29 0.15,0.560004 0.14,0.8 0.15,0.98 0.18,1.05 0.19,1.01 0.21,0.87 0.22,0.66 0.21,0.4 0.18,0.09 0.16,-0.22 0.15,-0.55 0.17,-0.86 0.24,-1.1 0.3,-1.22 0.36,-1.21 0.42,-1.100004 0.44,-0.88 0.42,-0.61 0.36,-0.27 0.29,0.11 0.2,0.48 0.15,0.83 0.12,1.100004 0.12,1.28 0.15,1.35 0.21,1.3 0.31,1.17 0.39,0.95 0.37,0.64 0.25,0.33"
     stroke="#54a0ff"
     stroke-width="2"
     stroke-linecap="round"
     stroke-linejoin="round"
     fill="none"
     opacity="0.8"
     id="path42" />
  <path
     d="m 245.49243,99.811516 -0.14,-0.29 -0.26,-0.39 -0.38,-0.34 -0.45,-0.12 -0.51,0.19 -0.56,0.51 -0.52,0.810004 -0.4,1.06 -0.23,1.21 0.01,1.23 0.23,1.12 0.41,0.91 0.54,0.63 0.59,0.33 0.57,0.05 0.49,-0.24 0.39,-0.48 0.24,-0.7 0.11,-0.84 -0.02,-0.87 -0.11,-0.79 -0.15,-0.63 -0.15,-0.46 -0.13,-0.29 -0.11,-0.12 -0.08,0.06 -0.02,0.29 0.06,0.57 0.17,0.86 0.27,1.1 0.34,1.3 0.41,1.45 0.43,1.54 0.42,1.6 0.37,1.61 0.29,1.56 0.17,1.47 0.03,1.31 -0.13,1.11 -0.29,0.88 -0.46,0.62 -0.6,0.34 -0.73,0.06 -0.79,-0.23 -0.8,-0.5 -0.73,-0.75 -0.6,-0.96 -0.37,-1.16 -0.09,-1.31 0.18,-1.37 0.3,-1.12 0.25,-0.71"
     stroke="#5f27cd"
     stroke-width="2"
     stroke-linecap="round"
     stroke-linejoin="round"
     fill="none"
     opacity="0.8"
     id="path43" />
  <path
     d="m 261.02243,99.671516 -0.21,-0.18 -0.4,-0.21 -0.6,-0.16 -0.75,0.04 -0.87,0.31 -0.91,0.570004 -0.88,0.82 -0.74,1 -0.5,1.12 -0.21,1.15 0.13,1.1 0.44,0.94 0.72,0.7 0.94,0.37 1.06,0.01 1.09,-0.35 1.02,-0.7 0.86,-0.99 0.6,-1.21 0.31,-1.32 -0.04,-1.32 -0.33,-1.2 -0.56,-0.990004 -0.69,-0.71 -0.7,-0.4 -0.58,-0.12 -0.36,0.15 -0.06,0.35 0.29,0.44 0.65,0.42 0.99,0.27 1.24,0.04 1.41,-0.24 1.44,-0.53 1.34,-0.79 1.12,-0.99 0.81,-1.12 0.49,-1.14 0.18,-1.09 -0.1,-0.97 -0.32,-0.76 -0.49,-0.49 -0.6,-0.13 -0.62,0.3 -0.56,0.79 -0.43,1.3 -0.28,1.75 -0.11,2.14 0.03,2.440004 0.13,2.65 0.23,2.75 0.3,2.74 0.28,2.59 0.24,2.3 0.18,1.9 0.13,1.41 0.11,0.88 0.11,0.31 0.06,-0.25 -0.01,-0.81 -0.1,-1.35 -0.25,-2.06 -0.27,-2.05 -0.21,-1.56"
     stroke="#00d2d3"
     stroke-width="2"
     stroke-linecap="round"
     stroke-linejoin="round"
     fill="none"
     opacity="0.8"
     id="path44" />
</svg>
